<svg width="179" height="188" viewBox="0 0 179 188" fill="none" xmlns="http://www.w3.org/2000/svg">
<path d="M100.902 122.152H76.3915C76.3915 135.304 81.3698 137.5 98.1089 137.5M82.6089 138.293C82.6089 150.25 88.9458 150.25 93.7284 150.25" stroke="white" stroke-width="4" stroke-linecap="square"/>
<path fill-rule="evenodd" clip-rule="evenodd" d="M88.3478 29C62.2214 29 49 48.6809 49 64.8096C49 71.6101 51.2589 77.766 54.5705 83.5705C53.0142 84.1742 51.5698 85.0498 50.2819 86.1471C46.6533 79.8055 44 72.7513 44 64.8096C44 46.1831 59.2035 24 88.3478 24C116.927 24 130.304 46.367 130.304 64.8096C130.304 72.6728 127.884 79.5972 124.548 85.8261C123.228 84.7723 121.755 83.9456 120.175 83.3965C123.227 77.6868 125.304 71.6097 125.304 64.8096C125.304 48.4971 113.573 29 88.3478 29Z" fill="#FFC648"/>
<path d="M75.2925 63.6807L71.598 63.6821C71.5247 63.6821 71.488 63.6401 71.4879 63.556L71.516 54.3834L67.2037 41.3511C67.1827 41.2671 67.2141 41.225 67.2979 41.225L70.8824 41.2237C70.9872 41.2237 71.0501 41.2657 71.0711 41.3497L73.4482 50.0329L75.8661 41.348C75.887 41.2639 75.9394 41.2219 76.0233 41.2218L79.6392 41.2205C79.723 41.2205 79.7545 41.2625 79.7336 41.3466L75.3834 54.2559L75.4183 63.5546C75.4183 63.6386 75.3764 63.6807 75.2925 63.6807Z" fill="white"/>
<path d="M86.4862 63.9919C85.3438 63.9923 84.2904 63.6985 83.3259 63.1104C82.372 62.5224 81.6013 61.7399 81.014 60.763C80.4372 59.7755 80.1486 58.6934 80.1482 57.5166L80.1759 47.2881C80.1755 46.0903 80.4633 45.0132 81.0394 44.0569C81.605 43.09 82.3699 42.3175 83.3339 41.7393C84.2979 41.1505 85.3459 40.856 86.4778 40.8555C87.6517 40.8551 88.7051 41.1437 89.6381 41.7212C90.5816 42.2988 91.3365 43.076 91.9029 44.0529C92.4797 45.0194 92.7683 46.0962 92.7687 47.2835L92.8039 57.512C92.8043 58.6888 92.5217 59.7659 91.9561 60.7432C91.38 61.7311 90.6152 62.5194 89.6616 63.1081C88.7081 63.6969 87.6496 63.9914 86.4862 63.9919ZM86.4848 60.099C87.1346 60.0988 87.7005 59.8359 88.1824 59.3104C88.6644 58.7744 88.9052 58.1754 88.905 57.5134L88.8698 47.2849C88.8695 46.5705 88.644 45.9664 88.1931 45.4727C87.7423 44.9791 87.171 44.7324 86.4792 44.7326C85.8189 44.7329 85.2531 44.9747 84.7816 45.4582C84.3101 45.9417 84.0745 46.5512 84.0748 47.2867L84.0785 57.5152C84.0788 58.2192 84.3148 58.8285 84.7866 59.3431C85.2585 59.8473 85.8245 60.0993 86.4848 60.099Z" fill="white"/>
<path d="M101.17 63.9865C100.038 63.9869 98.9898 63.6931 98.0254 63.1051C97.0609 62.517 96.2903 61.7293 95.7135 60.7419C95.1471 59.7439 94.8638 58.6565 94.8633 57.4798L94.9204 41.341C94.9203 41.257 94.9622 41.215 95.0461 41.2149L98.662 41.2136C98.7458 41.2136 98.7878 41.2556 98.7878 41.3396L98.7937 57.4783C98.7939 58.2033 99.0247 58.8231 99.4861 59.3378C99.9474 59.842 100.508 60.0939 101.169 60.0937C101.86 60.0934 102.437 59.8411 102.898 59.3366C103.359 58.8216 103.589 58.2016 103.589 57.4766L103.583 41.3379C103.583 41.2538 103.625 41.2118 103.709 41.2118L107.324 41.2105C107.408 41.2104 107.45 41.2524 107.45 41.3365L107.519 57.4752C107.519 58.6624 107.237 59.7553 106.671 60.7536C106.095 61.7415 105.33 62.5298 104.377 63.1185C103.423 63.6968 102.354 63.9861 101.17 63.9865Z" fill="white"/>
<path d="M66.8431 87.398L70.8282 65.2216C70.8492 65.1375 70.9016 65.0955 70.9854 65.0955L75.6546 65.0938C75.7385 65.0937 75.7909 65.1357 75.8119 65.2198L79.656 87.3933C79.6665 87.4984 79.6246 87.5509 79.5303 87.551L75.9615 87.5523C75.8567 87.5523 75.799 87.4998 75.7885 87.3947L75.4418 85.0308L71.0555 85.0324L70.7105 87.3966C70.7001 87.5017 70.6477 87.5542 70.5534 87.5542L66.9689 87.5555C66.8851 87.5556 66.8431 87.5031 66.8431 87.398ZM73.1419 72.5178L71.6989 81.5806L74.796 81.5795L73.4721 72.5177L73.283 71.32L73.1419 72.5178Z" fill="white"/>
<path d="M85.4415 87.5488L81.7941 87.5502C81.7103 87.5502 81.6683 87.4977 81.6683 87.3926L81.7231 65.2176C81.7231 65.1336 81.765 65.0916 81.8488 65.0915L88.3575 65.0892C89.5209 65.0887 90.59 65.372 91.5649 65.9391C92.5399 66.5061 93.3157 67.2675 93.8925 68.2235C94.4798 69.1794 94.7737 70.2615 94.7741 71.4698C94.7744 72.2578 94.6541 72.9723 94.4133 73.6133C94.1725 74.2544 93.8897 74.7956 93.5649 75.237C93.2507 75.6784 92.9626 76.0042 92.7006 76.2144C93.8645 77.5064 94.4467 79.0244 94.4473 80.7686L94.4812 87.3879C94.4812 87.493 94.4288 87.5456 94.324 87.5456L90.6767 87.5469C90.5928 87.547 90.5509 87.5155 90.5509 87.4524L90.5484 80.77C90.5482 79.9925 90.2754 79.3201 89.7302 78.753C89.185 78.1858 88.5141 77.9023 87.7176 77.9026L85.5952 77.9034L85.5672 87.3912C85.5672 87.4963 85.5253 87.5488 85.4415 87.5488ZM88.3589 68.9505L85.5919 68.9515L85.5938 74.0263L88.3607 74.0253C89.021 74.0251 89.6079 73.778 90.1212 73.2839C90.6451 72.7899 90.9069 72.1857 90.9067 71.4712C90.9064 70.7883 90.6546 70.2 90.1514 69.7063C89.6481 69.2022 89.0506 68.9502 88.3589 68.9505Z" fill="white"/>
<path d="M107.734 87.5407L97.3268 87.5445C97.2429 87.5445 97.201 87.492 97.201 87.387L97.2243 65.212C97.2243 65.128 97.2662 65.0859 97.3501 65.0859L107.695 65.0821C107.779 65.0821 107.82 65.1346 107.821 65.2397L107.822 68.8488C107.822 68.9329 107.78 68.9749 107.696 68.975L101.093 68.9774L101.095 74.0207L107.698 74.0183C107.782 74.0183 107.824 74.0603 107.824 74.1443L107.857 77.8007C107.857 77.8848 107.815 77.9268 107.731 77.9269L101.096 77.9293L101.098 83.5715L107.733 83.5691C107.817 83.5691 107.859 83.6216 107.859 83.7267L107.86 87.4146C107.86 87.4987 107.818 87.5407 107.734 87.5407Z" fill="white"/>
<path d="M50.7582 113.436C50.7582 113.607 50.7193 113.755 50.6416 113.879C50.5638 113.988 50.4627 114.073 50.3383 114.135C50.2294 114.198 50.105 114.237 49.965 114.252C49.8406 114.283 49.7162 114.299 49.5918 114.299C49.4207 114.299 49.2185 114.275 48.9852 114.229C48.7675 114.198 48.5497 114.143 48.332 114.066C48.1142 113.988 47.912 113.895 47.7254 113.786C47.5543 113.661 47.4221 113.514 47.3288 113.343C47.2355 113.187 47.15 112.9 47.0722 112.48C47.01 112.044 46.9555 111.547 46.9089 110.987C46.8622 110.412 46.8233 109.806 46.7922 109.168C46.7611 108.515 46.73 107.894 46.6989 107.303C46.6834 106.712 46.6678 106.183 46.6523 105.717C46.6523 105.235 46.6523 104.878 46.6523 104.644C46.6523 103.556 46.6678 102.507 46.6989 101.496C46.7456 100.47 46.7922 99.4208 46.8389 98.3481C46.7611 98.3481 46.6834 98.3558 46.6056 98.3714C46.5278 98.3869 46.4501 98.3947 46.3723 98.3947C46.1701 98.4258 45.9602 98.4491 45.7424 98.4647C45.5402 98.4802 45.3303 98.488 45.1125 98.488C44.8481 98.488 44.6148 98.4414 44.4127 98.3481C44.2105 98.2548 44.1094 98.0449 44.1094 97.7184C44.1094 97.3298 44.1949 97.0189 44.366 96.7857C44.5371 96.5525 44.7548 96.3737 45.0192 96.2493C45.2836 96.1094 45.5713 96.0161 45.8824 95.9695C46.1935 95.9073 46.4967 95.8606 46.7922 95.8296C46.8389 95.8296 46.87 95.8296 46.8856 95.8296C46.9011 95.814 46.9322 95.8062 46.9789 95.8062C46.9944 95.6197 47.01 95.3943 47.0255 95.13C47.0411 94.8501 47.0566 94.547 47.0722 94.2205C47.0877 93.7075 47.1111 93.1633 47.1422 92.5881C47.1733 91.9974 47.2044 91.4377 47.2355 90.9091C47.2666 90.365 47.3055 89.8908 47.3521 89.4866C47.3988 89.0669 47.4455 88.7715 47.4921 88.6005C47.5699 88.3984 47.6554 88.2351 47.7487 88.1108C47.8576 87.9864 48.052 87.9242 48.332 87.9242C48.9541 87.9242 49.4362 88.1263 49.7784 88.5305C50.1206 88.9347 50.2916 89.4322 50.2916 90.023C50.2916 90.707 50.2683 91.3911 50.2216 92.0751C50.1905 92.7591 50.1594 93.451 50.1283 94.1505L50.0583 95.3398C50.4472 95.2932 50.836 95.2232 51.2248 95.13C51.5981 95.0522 51.9713 94.9823 52.3446 94.9201C52.7334 94.8579 53.1067 94.8268 53.4644 94.8268C53.7755 94.8268 54.0165 94.9123 54.1876 95.0833C54.3587 95.2388 54.4442 95.472 54.4442 95.7829C54.4442 96.1249 54.382 96.4592 54.2576 96.7857C54.1332 97.1121 53.9155 97.3609 53.6044 97.5319H53.6277C53.5655 97.563 53.3789 97.6096 53.0678 97.6718C52.7568 97.7184 52.399 97.7651 51.9947 97.8117C51.6059 97.8584 51.217 97.905 50.8282 97.9516C50.4549 97.9983 50.175 98.0294 49.9884 98.0449H49.965C49.9339 98.9155 49.9106 99.7783 49.895 100.633C49.8795 101.473 49.8717 102.328 49.8717 103.199C49.8717 104.396 49.9028 105.67 49.965 107.023C50.0428 108.36 50.1672 109.635 50.3383 110.847L50.5249 111.897C50.5871 112.161 50.6416 112.425 50.6882 112.69C50.7349 112.938 50.7582 113.187 50.7582 113.436Z" fill="#FFC648"/>
<path d="M66.0389 112.76C66.0389 113.071 65.9378 113.296 65.7356 113.436C65.5334 113.576 65.2846 113.646 64.9891 113.646C64.8025 113.646 64.608 113.63 64.4059 113.599C64.2037 113.552 64.0093 113.506 63.8226 113.459C63.496 113.366 63.2394 113.249 63.0528 113.109C62.8817 112.969 62.7495 112.814 62.6562 112.643C62.5628 112.456 62.5006 112.254 62.4695 112.037C62.454 111.819 62.4384 111.578 62.4229 111.314C62.4229 111.236 62.4151 111.166 62.3995 111.104C62.3995 111.042 62.3995 110.98 62.3995 110.917C62.3529 110.031 62.3062 109.122 62.2596 108.189C62.2285 107.256 62.2129 106.347 62.2129 105.461C62.2129 105.01 62.2129 104.559 62.2129 104.108C62.2285 103.657 62.244 103.206 62.2596 102.755C62.2751 102.305 62.2829 101.862 62.2829 101.426C62.2984 100.975 62.3062 100.525 62.3062 100.074C62.3062 99.9805 62.2984 99.8949 62.2829 99.8172C62.2829 99.7239 62.2751 99.6307 62.2596 99.5374C61.8552 100.128 61.4975 100.789 61.1864 101.52C60.8909 102.235 60.6265 102.981 60.3932 103.758C60.1599 104.52 59.9577 105.29 59.7867 106.067C59.6311 106.829 59.4989 107.559 59.3901 108.259L59.3201 108.749C59.2423 109.293 59.1645 109.852 59.0868 110.428C59.009 110.987 58.9701 111.547 58.9701 112.107C58.9701 112.34 59.009 112.596 59.0868 112.876C59.1179 113.001 59.1412 113.125 59.1568 113.249C59.1879 113.358 59.2034 113.498 59.2034 113.669C59.2034 114.042 59.1101 114.291 58.9235 114.415C58.7368 114.555 58.488 114.625 58.1769 114.625C57.9903 114.625 57.7803 114.61 57.547 114.579C57.3293 114.547 57.1116 114.493 56.8938 114.415C56.6916 114.353 56.4972 114.268 56.3106 114.159C56.124 114.05 55.9762 113.91 55.8673 113.739C55.774 113.537 55.6807 113.001 55.5874 112.13C55.5096 111.259 55.4319 110.179 55.3541 108.889C55.2919 107.598 55.2297 106.152 55.1675 104.551C55.1052 102.934 55.043 101.279 54.9808 99.584C54.9342 97.8895 54.8875 96.2104 54.8408 94.547C54.8097 92.8835 54.872 94.5243 54.8408 93.1251C54.8253 91.726 54.8564 92.1512 54.8408 91.1251C54.8253 90.0835 54.8408 87.889 54.8408 87.4692C54.8408 87.1583 54.8797 86.8785 54.9575 86.6297C55.0508 86.3654 55.2997 86.2333 55.704 86.2333C56.124 86.2333 56.5206 86.3343 56.8938 86.5364C57.2671 86.723 57.5393 87.0184 57.7103 87.4226C57.7415 87.4848 57.7726 87.7413 57.8037 88.1921C57.8348 88.6274 57.8659 89.1949 57.897 89.8945C57.9281 90.5785 57.9592 91.3714 57.9903 92.2731C58.0214 93.1592 57.9825 92.5074 58.0136 93.4713C58.0447 94.4196 58.0136 93.6005 58.0136 94.5703C58.0447 95.5342 58.0758 96.4359 58.1069 97.2754L58.2236 100.727C58.4102 100.245 58.6435 99.7395 58.9235 99.2109C59.2034 98.6823 59.5223 98.2004 59.88 97.7651C60.2532 97.3298 60.6654 96.9722 61.1164 96.6924C61.583 96.4125 62.0963 96.2726 62.6562 96.2726C63.3405 96.2726 63.8771 96.4514 64.2659 96.809C64.6547 97.1665 64.9424 97.6096 65.1291 98.1382C65.3312 98.6668 65.4557 99.2342 65.5023 99.8405C65.549 100.447 65.5723 100.999 65.5723 101.496C65.5723 101.807 65.5645 102.11 65.549 102.406C65.549 102.701 65.5412 102.996 65.5257 103.292C65.5101 103.603 65.4946 103.914 65.479 104.225C65.479 104.52 65.479 104.823 65.479 105.134C65.479 106.207 65.5023 107.311 65.549 108.445C65.5956 109.565 65.7123 110.669 65.8989 111.757L65.9456 112.083C65.9767 112.177 66 112.285 66.0156 112.41C66.0311 112.534 66.0389 112.651 66.0389 112.76Z" fill="#FFC648"/>
<path d="M77.0737 109.751C77.0737 110.218 76.9415 110.7 76.6771 111.197C76.4282 111.695 76.1016 112.153 75.6972 112.573C75.2929 112.977 74.8263 113.312 74.2975 113.576C73.7842 113.84 73.271 113.972 72.7577 113.972C72.0268 113.972 71.3969 113.832 70.8681 113.552C70.3393 113.257 69.8805 112.868 69.4916 112.386C69.1028 111.889 68.784 111.329 68.5351 110.707C68.3018 110.086 68.1152 109.448 67.9752 108.795C67.8353 108.127 67.7342 107.466 67.672 106.813C67.6253 106.145 67.602 105.538 67.602 104.994C67.602 104.528 67.6253 103.976 67.672 103.338C67.7342 102.701 67.8275 102.04 67.9519 101.356C68.0919 100.672 68.2785 99.996 68.5118 99.3275C68.7451 98.659 69.0328 98.0605 69.375 97.5319C69.7327 97.0033 70.1526 96.5758 70.6348 96.2493C71.1325 95.9228 71.7001 95.7596 72.3378 95.7596C72.8355 95.7596 73.2788 95.8606 73.6676 96.0628C74.072 96.2649 74.4063 96.5369 74.6707 96.8789C74.9507 97.2054 75.1607 97.5863 75.3006 98.0216C75.4562 98.4569 75.5339 98.9077 75.5339 99.3741C75.5339 99.9804 75.3939 100.641 75.114 101.356C74.834 102.071 74.4685 102.763 74.0175 103.432C73.582 104.1 73.0843 104.707 72.5244 105.251C71.9801 105.779 71.4357 106.183 70.8914 106.463C70.9225 106.743 70.9847 107.155 71.078 107.699C71.1713 108.228 71.2958 108.756 71.4513 109.285C71.6224 109.814 71.8168 110.272 72.0345 110.661C72.2678 111.05 72.54 111.244 72.8511 111.244C73.0066 111.244 73.1388 111.197 73.2477 111.104C73.3721 111.011 73.4809 110.886 73.5743 110.731C73.6676 110.575 73.7453 110.404 73.8076 110.218C73.8853 110.031 73.9553 109.852 74.0175 109.681L74.1575 109.355C74.1886 109.308 74.2042 109.277 74.2042 109.262C74.2197 109.246 74.2353 109.223 74.2508 109.192C74.3597 108.99 74.4608 108.803 74.5541 108.632C74.663 108.461 74.8107 108.313 74.9973 108.189H74.974C75.0362 108.127 75.0984 108.096 75.1607 108.096C75.2384 108.08 75.3084 108.072 75.3706 108.072C75.5417 108.072 75.7283 108.127 75.9305 108.236C76.1327 108.344 76.3193 108.484 76.4904 108.655C76.6615 108.811 76.8015 108.99 76.9103 109.192C77.0192 109.378 77.0737 109.565 77.0737 109.751ZM72.4545 99.4674C72.4545 99.312 72.4467 99.1487 72.4311 98.9777C72.4156 98.8067 72.3767 98.659 72.3145 98.5346C72.0967 98.7989 71.9023 99.1176 71.7312 99.4907C71.5757 99.8483 71.4435 100.229 71.3346 100.633C71.2258 101.022 71.1325 101.418 71.0547 101.823C70.9925 102.227 70.9458 102.6 70.9147 102.942C71.3191 102.46 71.6768 101.916 71.9879 101.31C72.2989 100.688 72.4545 100.074 72.4545 99.4674Z" fill="#FFC648"/>
<path d="M99.3998 110.614C99.3998 110.972 99.2054 111.314 98.8165 111.64C98.4433 111.967 97.9534 112.27 97.3468 112.55C96.7558 112.814 96.0948 113.063 95.3638 113.296C94.6484 113.514 93.9407 113.7 93.2408 113.856C92.5565 114.011 91.9266 114.128 91.3512 114.205C90.7757 114.299 90.348 114.345 90.0681 114.345C89.5393 114.345 89.0494 114.283 88.5983 114.159C88.1628 114.034 87.7818 113.848 87.4552 113.599C87.1286 113.335 86.872 113.001 86.6853 112.596C86.5142 112.192 86.4287 111.702 86.4287 111.127C86.4287 106.976 86.4442 102.841 86.4754 98.7212C86.5065 94.6014 86.4754 98.4417 86.4754 94.2597C86.4754 93.6067 86.5065 92.9224 86.4754 92.285C86.4442 91.6476 86.4754 90.9921 86.4754 90.3392C86.4754 90.1837 86.4598 89.9659 86.4754 89.7638C86.4909 89.5461 86.5472 89.2961 86.6094 89.1251C86.6716 88.9386 87.1094 88.6251 87.1094 88.6251C87.1094 88.6251 87.3074 88.5771 87.5252 88.5771C87.7429 88.5771 87.9684 88.6082 88.2017 88.6704C88.4506 88.7326 88.6761 88.8259 88.8783 88.9502C89.096 89.0746 89.2826 89.2301 89.4382 89.4166C89.6093 89.5876 89.7337 89.7897 89.8114 90.0229C89.8892 90.3028 89.9203 90.6059 89.9048 90.9324C89.9048 91.2433 89.9048 91.562 89.9048 91.8885C89.9825 96.0239 89.8737 92.1761 89.9048 96.2493C89.9514 100.322 89.9747 104.427 89.9747 108.562C89.9747 109.028 89.9747 109.495 89.9747 109.961C89.9903 110.428 90.0214 110.894 90.0681 111.36C90.488 111.345 91.0012 111.275 91.6078 111.151C92.2144 111.026 92.8209 110.871 93.4275 110.684C94.0496 110.482 94.6328 110.257 95.1772 110.008C95.7215 109.759 96.1492 109.495 96.4603 109.215C96.6003 109.075 96.748 108.935 96.9035 108.795C97.0591 108.64 97.2535 108.562 97.4868 108.562C97.689 108.562 97.8989 108.632 98.1167 108.772C98.35 108.912 98.5599 109.091 98.7466 109.308C98.9332 109.51 99.0887 109.728 99.2131 109.961C99.3376 110.194 99.3998 110.412 99.3998 110.614Z" fill="#FFC648"/>
<path d="M102.689 94.4071C102.689 94.6713 102.627 94.8657 102.503 94.9901C102.394 95.0989 102.184 95.1533 101.873 95.1533C101.733 95.1533 101.515 95.1377 101.219 95.1066C100.924 95.06 100.621 94.9978 100.31 94.9201C100.014 94.8424 99.7497 94.7335 99.5164 94.5936C99.2987 94.4537 99.1898 94.2827 99.1898 94.0806C99.1898 94.0184 99.2131 93.8474 99.2598 93.5676C99.3065 93.2722 99.3609 92.9612 99.4231 92.6348C99.5009 92.3083 99.5631 92.0129 99.6097 91.7486C99.672 91.4843 99.7186 91.3366 99.7497 91.3055L99.9643 91.119C100.115 91.0745 99.9208 91.1268 100.03 91.0957C100.139 91.0646 100.247 91.049 100.356 91.049C100.496 91.049 100.893 91.119 100.893 91.119C101.126 91.1501 101.352 91.2045 101.569 91.2822C101.803 91.3444 102.013 91.4299 102.199 91.5387C102.386 91.6476 102.503 91.7642 102.549 91.8885C102.596 92.0129 102.619 92.1839 102.619 92.4016C102.635 92.6037 102.635 92.7902 102.619 92.9612C102.619 93.0234 102.611 93.1012 102.596 93.1944C102.596 93.2722 102.596 93.3343 102.596 93.381C102.596 93.4587 102.596 93.5365 102.596 93.6142C102.611 93.6919 102.627 93.7697 102.643 93.8474C102.658 93.9251 102.666 94.0106 102.666 94.1039C102.681 94.1972 102.689 94.2982 102.689 94.4071ZM103.552 112.993C103.552 113.35 103.467 113.607 103.296 113.762C103.14 113.902 102.884 113.972 102.526 113.972C102.339 113.972 102.129 113.949 101.896 113.902C101.678 113.856 101.461 113.793 101.243 113.716C101.025 113.622 100.823 113.514 100.636 113.389C100.45 113.265 100.31 113.125 100.216 112.969C100.154 112.876 100.1 112.589 100.053 112.107C100.006 111.625 99.9675 111.026 99.9364 110.311C99.9208 109.596 99.8975 108.795 99.8664 107.909C99.8508 107.023 99.8353 106.129 99.8197 105.227C99.8197 104.326 99.8197 103.447 99.8197 102.592C99.8197 101.737 99.8197 100.991 99.8197 100.354V98.558C99.8197 98.4025 99.8197 98.247 99.8197 98.0916C99.8353 97.9361 99.8664 97.8039 99.913 97.6951C99.9752 97.5708 100.061 97.4697 100.17 97.392C100.294 97.3142 100.465 97.2754 100.683 97.2754C101.367 97.2754 101.865 97.4697 102.176 97.8584C102.503 98.2315 102.705 98.7367 102.783 99.3741C102.86 100.322 102.915 101.271 102.946 102.219C102.992 103.152 103.031 104.1 103.062 105.064C103.094 105.935 103.117 106.798 103.132 107.653C103.164 108.492 103.218 109.332 103.296 110.171C103.311 110.342 103.327 110.505 103.342 110.661C103.358 110.816 103.381 110.972 103.412 111.127C103.444 111.438 103.475 111.749 103.506 112.06C103.537 112.355 103.552 112.666 103.552 112.993Z" fill="#FFC648"/>
<path d="M117.527 108.236C117.527 108.391 117.48 108.578 117.387 108.795C117.309 108.997 117.2 109.215 117.06 109.448C116.936 109.666 116.796 109.891 116.64 110.124C116.485 110.358 116.337 110.568 116.197 110.754L115.847 111.244L115.497 111.85L115.194 112.41C115.209 112.721 115.233 113.055 115.264 113.413C115.295 113.77 115.326 114.112 115.357 114.439C115.528 116.04 115.676 117.672 115.8 119.336C115.94 120.999 116.01 122.632 116.01 124.233C116.01 125.088 115.94 125.951 115.8 126.821C115.66 127.707 115.396 128.5 115.007 129.2C114.634 129.915 114.113 130.498 113.444 130.949C112.775 131.4 111.92 131.625 110.878 131.625C110.162 131.625 109.556 131.493 109.058 131.229C108.56 130.964 108.156 130.607 107.845 130.156C107.549 129.721 107.332 129.208 107.192 128.617C107.052 128.026 106.982 127.412 106.982 126.775C106.982 125.515 107.13 124.241 107.425 122.95C107.721 121.66 108.102 120.385 108.568 119.126C109.05 117.867 109.595 116.631 110.201 115.418C110.808 114.221 111.422 113.071 112.044 111.967C112.044 111.936 112.044 111.905 112.044 111.873C112.044 111.827 112.036 111.757 112.021 111.664C111.819 112.037 111.585 112.425 111.321 112.83C111.072 113.218 110.784 113.568 110.458 113.879C110.147 114.19 109.797 114.446 109.408 114.648C109.035 114.851 108.615 114.952 108.148 114.952C107.495 114.952 106.951 114.796 106.515 114.485C106.08 114.174 105.73 113.778 105.465 113.296C105.217 112.814 105.038 112.285 104.929 111.71C104.82 111.135 104.766 110.591 104.766 110.078C104.766 109.487 104.797 108.904 104.859 108.329C104.937 107.754 105.022 107.194 105.115 106.65C105.271 105.779 105.465 104.839 105.699 103.828C105.948 102.802 106.251 101.792 106.609 100.797C106.966 99.7861 107.378 98.8378 107.845 97.9516C108.327 97.0655 108.887 96.3115 109.525 95.6896L109.711 95.5264C109.914 95.3243 110.147 95.13 110.411 94.9434C110.676 94.7413 110.948 94.6403 111.228 94.6403C111.399 94.6403 111.547 94.6869 111.671 94.7802C111.811 94.8735 111.928 94.9978 112.021 95.1533C112.114 95.2932 112.184 95.4487 112.231 95.6197C112.293 95.7907 112.324 95.9539 112.324 96.1094C112.324 96.2959 112.254 96.498 112.114 96.7157H112.161C113.11 96.7157 113.747 97.151 114.074 98.0216C114.245 98.1771 114.369 98.3636 114.447 98.5813C114.54 98.7989 114.587 99.0321 114.587 99.2809C114.587 99.4052 114.579 99.5452 114.564 99.7006C114.548 99.8405 114.525 99.9727 114.494 100.097C114.463 100.237 114.439 100.369 114.424 100.493C114.408 100.618 114.401 100.734 114.401 100.843C114.401 101.201 114.408 101.644 114.424 102.172C114.439 102.701 114.463 103.253 114.494 103.828C114.525 104.403 114.556 104.971 114.587 105.531C114.634 106.075 114.673 106.549 114.704 106.953C114.813 106.813 114.937 106.689 115.077 106.58C115.233 106.471 115.411 106.417 115.614 106.417C115.785 106.417 115.979 106.479 116.197 106.603C116.43 106.728 116.64 106.883 116.827 107.07C117.029 107.256 117.192 107.458 117.317 107.676C117.457 107.878 117.527 108.065 117.527 108.236ZM111.111 98.6279C111.111 98.5346 111.111 98.4336 111.111 98.3248C111.127 98.2159 111.15 98.0993 111.181 97.975L111.018 98.1848C110.893 98.3248 110.777 98.4569 110.668 98.5813C110.559 98.7056 110.458 98.8378 110.365 98.9777C109.96 99.5685 109.602 100.338 109.291 101.286C108.996 102.219 108.747 103.206 108.545 104.248C108.343 105.274 108.187 106.285 108.078 107.279C107.985 108.274 107.938 109.13 107.938 109.845C107.938 110.202 107.946 110.56 107.962 110.917C107.977 111.275 108.055 111.625 108.195 111.967C108.413 111.734 108.592 111.485 108.731 111.221C108.871 110.941 109.004 110.653 109.128 110.358C109.47 109.596 109.766 108.71 110.015 107.699C110.263 106.689 110.466 105.647 110.621 104.574C110.777 103.502 110.893 102.452 110.971 101.426C111.049 100.385 111.096 99.4519 111.111 98.6279ZM112.884 123.533C112.884 122.476 112.861 121.481 112.814 120.548C112.767 119.631 112.697 118.644 112.604 117.587C112.324 118.255 112.036 118.97 111.741 119.732C111.461 120.51 111.212 121.287 110.994 122.064C110.777 122.857 110.598 123.642 110.458 124.419C110.318 125.197 110.248 125.935 110.248 126.635V126.798C110.248 127.156 110.271 127.536 110.318 127.941C110.365 128.36 110.512 128.702 110.761 128.967H111.018C111.329 128.967 111.585 128.858 111.788 128.64C112.005 128.438 112.184 128.174 112.324 127.847C112.464 127.521 112.573 127.156 112.651 126.751C112.729 126.347 112.783 125.943 112.814 125.539C112.845 125.135 112.861 124.754 112.861 124.396C112.876 124.039 112.884 123.751 112.884 123.533Z" fill="#FFC648"/>
<path d="M129.261 112.76C129.261 113.071 129.16 113.296 128.958 113.436C128.756 113.576 128.507 113.646 128.211 113.646C128.025 113.646 127.83 113.63 127.628 113.599C127.426 113.552 127.232 113.506 127.045 113.459C126.718 113.366 126.462 113.249 126.275 113.109C126.104 112.969 125.972 112.814 125.879 112.643C125.785 112.456 125.723 112.254 125.692 112.037C125.676 111.819 125.661 111.578 125.645 111.314C125.645 111.236 125.637 111.166 125.622 111.104C125.622 111.042 125.622 110.98 125.622 110.917C125.575 110.031 125.529 109.122 125.482 108.189C125.451 107.256 125.435 106.347 125.435 105.461C125.435 105.01 125.435 104.559 125.435 104.108C125.451 103.657 125.466 103.206 125.482 102.755C125.497 102.305 125.505 101.862 125.505 101.426C125.521 100.975 125.529 100.525 125.529 100.074C125.529 99.9805 125.521 99.8949 125.505 99.8172C125.505 99.7239 125.497 99.6307 125.482 99.5374C125.078 100.128 124.72 100.789 124.409 101.52C124.113 102.235 123.849 102.981 123.616 103.758C123.382 104.52 123.18 105.29 123.009 106.067C122.853 106.829 122.721 107.559 122.612 108.259L122.542 108.749C122.465 109.293 122.387 109.852 122.309 110.428C122.231 110.987 122.192 111.547 122.192 112.107C122.192 112.34 122.231 112.596 122.309 112.876C122.34 113.001 122.364 113.125 122.379 113.249C122.41 113.358 122.426 113.498 122.426 113.669C122.426 114.042 122.332 114.291 122.146 114.415C121.959 114.555 121.71 114.625 121.399 114.625C121.213 114.625 121.003 114.61 120.769 114.579C120.552 114.547 120.334 114.493 120.116 114.415C119.914 114.353 119.72 114.268 119.533 114.159C119.346 114.05 119.199 113.91 119.09 113.739C118.996 113.537 118.903 113.001 118.81 112.13C118.732 111.259 118.654 110.179 118.576 108.889C118.514 107.598 118.452 106.152 118.39 104.551C118.328 102.934 118.265 101.279 118.203 99.584C118.157 97.8895 118.11 96.2104 118.063 94.547C118.032 92.8835 118.094 95.569 118.063 94.1698C118.048 92.7706 118.079 91.1512 118.063 90.1251C118.048 89.0835 118.063 88.073 118.063 87.6532C118.063 87.3423 118.125 87.1091 118.203 86.8604C118.296 86.5961 118.545 86.4639 118.95 86.4639C119.37 86.4639 119.766 86.565 120.14 86.7671C120.513 86.9537 120.785 87.249 120.956 87.6532C120.987 87.7154 121.018 87.972 121.049 88.4228C121.08 88.8581 121.112 89.4255 121.143 90.1251C121.174 90.8092 121.205 93.5986 121.236 94.5003C121.267 95.3865 121.298 96.3115 121.329 97.2754C121.36 98.2237 121.205 93.6064 121.236 94.5703C121.267 95.5342 121.298 96.4359 121.329 97.2754L121.446 100.727C121.633 100.245 121.866 99.7395 122.146 99.2109C122.426 98.6823 122.745 98.2004 123.102 97.7651C123.476 97.3298 123.888 96.9722 124.339 96.6924C124.805 96.4125 125.319 96.2726 125.879 96.2726C126.563 96.2726 127.099 96.4514 127.488 96.809C127.877 97.1665 128.165 97.6096 128.351 98.1382C128.554 98.6668 128.678 99.2342 128.725 99.8405C128.771 100.447 128.795 100.999 128.795 101.496C128.795 101.807 128.787 102.11 128.771 102.406C128.771 102.701 128.764 102.996 128.748 103.292C128.732 103.603 128.717 103.914 128.701 104.225C128.701 104.52 128.701 104.823 128.701 105.134C128.701 106.207 128.725 107.311 128.771 108.445C128.818 109.565 128.935 110.669 129.121 111.757L129.168 112.083C129.199 112.177 129.222 112.285 129.238 112.41C129.253 112.534 129.261 112.651 129.261 112.76Z" fill="#FFC648"/>
<path d="M120.532 125.5V118.936H121.744V119.488C121.94 119.308 122.118 119.156 122.278 119.032C122.442 118.904 122.6 118.84 122.752 118.84C122.968 118.84 123.142 118.914 123.274 119.062C123.406 119.21 123.504 119.38 123.568 119.572C123.74 119.396 123.918 119.23 124.102 119.074C124.29 118.918 124.48 118.84 124.672 118.84C124.872 118.84 125.04 118.904 125.176 119.032C125.312 119.16 125.414 119.322 125.482 119.518C125.55 119.714 125.584 119.916 125.584 120.124V125.5H124.444V120.364C124.444 120.236 124.412 120.146 124.348 120.094C124.288 120.042 124.212 120.016 124.12 120.016C124.028 120.016 123.94 120.052 123.856 120.124C123.772 120.192 123.708 120.26 123.664 120.328V125.5H122.524V120.364C122.524 120.236 122.492 120.146 122.428 120.094C122.368 120.042 122.292 120.016 122.2 120.016C122.108 120.016 122.02 120.052 121.936 120.124C121.852 120.192 121.788 120.26 121.744 120.328V125.5H120.532ZM127.681 125.596C127.197 125.596 126.815 125.43 126.535 125.098C126.259 124.762 126.121 124.352 126.121 123.868V120.568C126.121 120.056 126.259 119.64 126.535 119.32C126.811 119 127.197 118.84 127.693 118.84C128.017 118.84 128.295 118.914 128.527 119.062C128.763 119.21 128.943 119.412 129.067 119.668C129.191 119.92 129.253 120.208 129.253 120.532V122.44H127.249V123.868C127.249 124.032 127.285 124.184 127.357 124.324C127.433 124.46 127.545 124.528 127.693 124.528C127.849 124.528 127.959 124.464 128.023 124.336C128.091 124.208 128.125 124.052 128.125 123.868V123.148H129.253V123.904C129.253 124.412 129.115 124.822 128.839 125.134C128.567 125.442 128.181 125.596 127.681 125.596ZM127.249 121.492H128.125V120.568C128.125 120.388 128.093 120.232 128.029 120.1C127.969 119.964 127.857 119.896 127.693 119.896C127.541 119.896 127.429 119.966 127.357 120.106C127.285 120.242 127.249 120.396 127.249 120.568V121.492ZM130.666 125.596C130.466 125.596 130.296 125.534 130.156 125.41C130.016 125.286 129.91 125.126 129.838 124.93C129.766 124.73 129.73 124.524 129.73 124.312V120.124C129.73 119.912 129.764 119.708 129.832 119.512C129.904 119.316 130.01 119.156 130.15 119.032C130.29 118.904 130.462 118.84 130.666 118.84C130.818 118.84 130.978 118.892 131.146 118.996C131.314 119.1 131.474 119.224 131.626 119.368V116.68H132.838V125.5H131.626V125.068C131.466 125.208 131.308 125.332 131.152 125.44C130.996 125.544 130.834 125.596 130.666 125.596ZM131.242 124.456C131.334 124.456 131.42 124.418 131.5 124.342C131.584 124.266 131.626 124.172 131.626 124.06V120.376C131.626 120.28 131.584 120.19 131.5 120.106C131.42 120.022 131.334 119.98 131.242 119.98C131.154 119.98 131.082 120.018 131.026 120.094C130.97 120.166 130.942 120.26 130.942 120.376V124.06C130.942 124.172 130.97 124.266 131.026 124.342C131.082 124.418 131.154 124.456 131.242 124.456ZM133.694 125.5V118.936H134.906V125.5H133.694ZM133.694 117.892V116.68H134.906V117.892H133.694ZM136.51 125.596C136.23 125.596 135.988 125.454 135.784 125.17C135.58 124.886 135.478 124.452 135.478 123.868C135.478 123.304 135.598 122.85 135.838 122.506C136.082 122.162 136.446 121.864 136.93 121.612C137.082 121.532 137.21 121.46 137.314 121.396C137.418 121.332 137.482 121.272 137.506 121.216V120.496C137.506 120.332 137.486 120.192 137.446 120.076C137.41 119.956 137.318 119.896 137.17 119.896C137.034 119.896 136.942 119.96 136.894 120.088C136.846 120.212 136.822 120.368 136.822 120.556V120.868H135.61V120.592C135.61 120.232 135.68 119.922 135.82 119.662C135.964 119.398 136.158 119.196 136.402 119.056C136.65 118.912 136.93 118.84 137.242 118.84C137.542 118.84 137.802 118.91 138.022 119.05C138.242 119.186 138.412 119.376 138.532 119.62C138.656 119.86 138.718 120.136 138.718 120.448V124.36C138.718 124.652 138.726 124.88 138.742 125.044C138.758 125.204 138.778 125.356 138.802 125.5H137.614C137.562 125.436 137.53 125.342 137.518 125.218C137.51 125.094 137.506 125.012 137.506 124.972H137.422C137.322 125.156 137.194 125.306 137.038 125.422C136.886 125.538 136.71 125.596 136.51 125.596ZM137.002 124.408C137.142 124.408 137.26 124.36 137.356 124.264C137.456 124.168 137.506 124.064 137.506 123.952V122.392C137.214 122.516 137 122.704 136.864 122.956C136.732 123.204 136.666 123.484 136.666 123.796C136.666 123.932 136.692 124.068 136.744 124.204C136.796 124.34 136.882 124.408 137.002 124.408Z" fill="white"/>
<path d="M139.412 125.5V124.168H140.672V125.5H139.412Z" fill="#FF0000"/>
<rect x="133.092" y="81.5" width="3.03571" height="32.7857" rx="1" fill="#FFC648"/>
<rect x="143.109" y="89.6964" width="3.03572" height="17" rx="1" transform="rotate(90 143.109 89.6964)" fill="#FFC648"/>
</svg>
