<svg width="380" height="198" viewBox="0 0 380 198" fill="none" xmlns="http://www.w3.org/2000/svg">
<path d="M82.2516 90.3134L72.9779 90.3167C72.7938 90.3168 72.7017 90.2114 72.7016 90.0004L72.7721 66.9761L61.9475 34.2634C61.8949 34.0525 61.9737 33.9469 62.1842 33.9469L71.1816 33.9436C71.4447 33.9435 71.6026 34.0489 71.6553 34.2599L77.622 56.0556L83.6913 34.2555C83.7439 34.0445 83.8754 33.939 84.0858 33.9389L93.1622 33.9356C93.3727 33.9355 93.4516 34.041 93.3991 34.252L82.4798 66.6561L82.5672 89.9968C82.5673 90.2078 82.4621 90.3133 82.2516 90.3134Z" fill="white"/>
<path d="M110.349 91.0944C107.482 91.0954 104.837 90.3579 102.416 88.8819C100.022 87.4058 98.0874 85.4417 96.6132 82.9895C95.1654 80.5108 94.4409 77.7946 94.4398 74.8408L94.5094 49.1659C94.5084 46.1593 95.2308 43.4558 96.6769 41.0552C98.0967 38.6283 100.016 36.6892 102.436 35.2377C104.856 33.7599 107.487 33.0205 110.328 33.0195C113.275 33.0184 115.919 33.7427 118.261 35.1924C120.629 36.6421 122.524 38.5931 123.945 41.0453C125.393 43.4712 126.118 46.1742 126.119 49.1544L126.207 74.8292C126.208 77.7831 125.499 80.4866 124.079 82.9399C122.633 85.4196 120.713 87.3983 118.32 88.8761C115.926 90.3539 113.269 91.0933 110.349 91.0944ZM110.346 81.3229C111.977 81.3223 113.397 80.6625 114.607 79.3433C115.816 77.9978 116.421 76.4943 116.42 74.8328L116.332 49.158C116.331 47.3646 115.765 45.8483 114.634 44.6092C113.502 43.37 112.068 42.7507 110.332 42.7514C108.674 42.752 107.254 43.3591 106.07 44.5727C104.887 45.7863 104.295 47.3162 104.296 49.1624L104.305 74.8372C104.306 76.6042 104.899 78.1337 106.083 79.4256C107.267 80.6911 108.688 81.3235 110.346 81.3229Z" fill="white"/>
<path d="M147.207 91.081C144.366 91.082 141.735 90.3445 139.314 88.8685C136.893 87.3924 134.958 85.4151 133.511 82.9365C132.089 80.4315 131.378 77.7021 131.377 74.7482L131.52 34.2381C131.52 34.0272 131.625 33.9216 131.835 33.9215L140.912 33.9183C141.122 33.9182 141.227 34.0236 141.228 34.2346L141.242 74.7446C141.243 76.5644 141.822 78.1203 142.98 79.4122C144.138 80.6777 145.546 81.3101 147.203 81.3095C148.94 81.3089 150.387 80.6754 151.544 79.409C152.701 78.1163 153.279 76.56 153.278 74.7403L153.264 34.2302C153.263 34.0193 153.369 33.9137 153.579 33.9136L162.655 33.9103C162.866 33.9103 162.971 34.0157 162.971 34.2267L163.144 74.7367C163.145 77.7169 162.436 80.46 161.016 82.966C159.57 85.4457 157.65 87.4244 155.257 88.9022C152.863 90.3536 150.18 91.0799 147.207 91.081Z" fill="white"/>
<path d="M61.0425 149.847L71.0457 94.1812C71.0982 93.9702 71.2297 93.8646 71.4402 93.8646L83.1605 93.8603C83.371 93.8602 83.5026 93.9657 83.5553 94.1767L93.2043 149.835C93.2307 150.099 93.1255 150.23 92.8888 150.231L83.9308 150.234C83.6677 150.234 83.523 150.102 83.4966 149.838L82.6262 143.905L71.6162 143.909L70.7502 149.843C70.724 150.107 70.5925 150.239 70.3557 150.239L61.3583 150.242C61.1478 150.242 61.0425 150.11 61.0425 149.847ZM76.8533 112.496L73.231 135.244L81.0051 135.241L77.682 112.495L77.2074 109.489L76.8533 112.496Z" fill="white"/>
<path d="M107.727 150.225L98.5713 150.229C98.3609 150.229 98.2556 150.097 98.2555 149.833L98.3931 94.1713C98.393 93.9603 98.4982 93.8547 98.7087 93.8547L115.046 93.8487C117.966 93.8477 120.65 94.5588 123.097 95.9821C125.544 97.4054 127.492 99.3167 128.94 101.716C130.414 104.116 131.152 106.832 131.153 109.865C131.153 111.843 130.851 113.636 130.247 115.245C129.642 116.854 128.933 118.213 128.117 119.321C127.329 120.429 126.605 121.247 125.948 121.775C128.869 125.017 130.331 128.828 130.332 133.206L130.417 149.821C130.417 150.085 130.286 150.217 130.023 150.217L120.868 150.22C120.657 150.22 120.552 150.141 120.552 149.983L120.546 133.209C120.545 131.258 119.86 129.57 118.492 128.146C117.123 126.723 115.439 126.011 113.44 126.012L108.112 126.014L108.042 149.829C108.042 150.093 107.937 150.225 107.727 150.225ZM115.05 103.541L108.104 103.544L108.109 116.282L115.054 116.28C116.712 116.279 118.185 115.659 119.473 114.419C120.788 113.179 121.446 111.662 121.445 109.868C121.444 108.154 120.812 106.677 119.549 105.438C118.286 104.173 116.786 103.54 115.05 103.541Z" fill="white"/>
<path d="M163.684 150.205L137.56 150.214C137.35 150.214 137.244 150.083 137.244 149.819L137.303 94.1571C137.303 93.9461 137.408 93.8406 137.619 93.8405L163.585 93.8311C163.795 93.831 163.901 93.9628 163.901 94.2266L163.904 103.286C163.904 103.497 163.799 103.602 163.588 103.603L147.014 103.609L147.019 116.268L163.593 116.262C163.804 116.262 163.909 116.367 163.909 116.578L163.991 125.756C163.991 125.967 163.886 126.073 163.676 126.073L147.022 126.079L147.028 140.242L163.681 140.236C163.891 140.236 163.996 140.367 163.997 140.631L164 149.888C164 150.099 163.895 150.205 163.684 150.205Z" fill="white"/>
<path d="M281.327 171V156.231H284.054V157.473C284.495 157.068 284.895 156.726 285.255 156.447C285.624 156.159 285.98 156.015 286.322 156.015C286.808 156.015 287.199 156.181 287.496 156.514C287.793 156.847 288.014 157.23 288.158 157.662C288.545 157.266 288.945 156.892 289.359 156.541C289.782 156.19 290.21 156.015 290.642 156.015C291.092 156.015 291.47 156.159 291.776 156.447C292.082 156.735 292.311 157.099 292.464 157.54C292.617 157.981 292.694 158.436 292.694 158.904V171H290.129V159.444C290.129 159.156 290.057 158.953 289.913 158.836C289.778 158.719 289.607 158.661 289.4 158.661C289.193 158.661 288.995 158.742 288.806 158.904C288.617 159.057 288.473 159.21 288.374 159.363V171H285.809V159.444C285.809 159.156 285.737 158.953 285.593 158.836C285.458 158.719 285.287 158.661 285.08 158.661C284.873 158.661 284.675 158.742 284.486 158.904C284.297 159.057 284.153 159.21 284.054 159.363V171H281.327ZM297.411 171.216C296.322 171.216 295.462 170.842 294.832 170.095C294.211 169.339 293.901 168.417 293.901 167.328V159.903C293.901 158.751 294.211 157.815 294.832 157.095C295.453 156.375 296.322 156.015 297.438 156.015C298.167 156.015 298.792 156.181 299.314 156.514C299.845 156.847 300.25 157.302 300.529 157.878C300.808 158.445 300.948 159.093 300.948 159.822V164.115H296.439V167.328C296.439 167.697 296.52 168.039 296.682 168.354C296.853 168.66 297.105 168.813 297.438 168.813C297.789 168.813 298.036 168.669 298.18 168.381C298.333 168.093 298.41 167.742 298.41 167.328V165.708H300.948V167.409C300.948 168.552 300.637 169.474 300.016 170.176C299.404 170.869 298.536 171.216 297.411 171.216ZM296.439 161.982H298.41V159.903C298.41 159.498 298.338 159.147 298.194 158.85C298.059 158.544 297.807 158.391 297.438 158.391C297.096 158.391 296.844 158.548 296.682 158.863C296.52 159.169 296.439 159.516 296.439 159.903V161.982ZM304.128 171.216C303.678 171.216 303.295 171.077 302.98 170.797C302.665 170.518 302.427 170.158 302.265 169.717C302.103 169.267 302.022 168.804 302.022 168.327V158.904C302.022 158.427 302.098 157.968 302.251 157.527C302.413 157.086 302.652 156.726 302.967 156.447C303.282 156.159 303.669 156.015 304.128 156.015C304.47 156.015 304.83 156.132 305.208 156.366C305.586 156.6 305.946 156.879 306.288 157.203V151.155H309.015V171H306.288V170.028C305.928 170.343 305.572 170.622 305.221 170.865C304.87 171.099 304.506 171.216 304.128 171.216ZM305.424 168.651C305.631 168.651 305.824 168.565 306.004 168.394C306.193 168.223 306.288 168.012 306.288 167.76V159.471C306.288 159.255 306.193 159.052 306.004 158.863C305.824 158.674 305.631 158.58 305.424 158.58C305.226 158.58 305.064 158.665 304.938 158.836C304.812 158.998 304.749 159.21 304.749 159.471V167.76C304.749 168.012 304.812 168.223 304.938 168.394C305.064 168.565 305.226 168.651 305.424 168.651ZM310.94 171V156.231H313.667V171H310.94ZM310.94 153.882V151.155H313.667V153.882H310.94ZM317.275 171.216C316.645 171.216 316.101 170.896 315.642 170.257C315.183 169.618 314.953 168.642 314.953 167.328C314.953 166.059 315.223 165.037 315.763 164.263C316.312 163.489 317.131 162.819 318.22 162.252C318.562 162.072 318.85 161.91 319.084 161.766C319.318 161.622 319.462 161.487 319.516 161.361V159.741C319.516 159.372 319.471 159.057 319.381 158.796C319.3 158.526 319.093 158.391 318.76 158.391C318.454 158.391 318.247 158.535 318.139 158.823C318.031 159.102 317.977 159.453 317.977 159.876V160.578H315.25V159.957C315.25 159.147 315.408 158.449 315.723 157.864C316.047 157.27 316.483 156.816 317.032 156.501C317.59 156.177 318.22 156.015 318.922 156.015C319.597 156.015 320.182 156.172 320.677 156.487C321.172 156.793 321.555 157.221 321.825 157.77C322.104 158.31 322.243 158.931 322.243 159.633V168.435C322.243 169.092 322.261 169.605 322.297 169.974C322.333 170.334 322.378 170.676 322.432 171H319.759C319.642 170.856 319.57 170.644 319.543 170.365C319.525 170.086 319.516 169.902 319.516 169.812H319.327C319.102 170.226 318.814 170.563 318.463 170.824C318.121 171.086 317.725 171.216 317.275 171.216ZM318.382 168.543C318.697 168.543 318.963 168.435 319.179 168.219C319.404 168.003 319.516 167.769 319.516 167.517V164.007C318.859 164.286 318.378 164.709 318.072 165.276C317.775 165.834 317.626 166.464 317.626 167.166C317.626 167.472 317.685 167.778 317.802 168.084C317.919 168.39 318.112 168.543 318.382 168.543Z" fill="white"/>
<path d="M323.805 171V168.003H326.64V171H323.805Z" fill="#FF0000"/>
<path d="M225 113.5C228 100 247 87.5295 247 68.0407C247 53.5068 236.5 36 214 36C190.887 36 179 53.5068 179 68.0407C179 87.5295 199.528 100.618 202.5 113.5" stroke="#FFC648" stroke-width="5" stroke-linecap="round"/>
<path d="M180.517 149.357C180.517 149.565 180.47 149.744 180.376 149.895C180.282 150.028 180.16 150.132 180.009 150.207C179.877 150.283 179.727 150.33 179.558 150.349C179.407 150.387 179.257 150.406 179.106 150.406C178.899 150.406 178.655 150.377 178.372 150.321C178.109 150.283 177.846 150.217 177.582 150.122C177.319 150.028 177.074 149.914 176.849 149.782C176.642 149.631 176.482 149.451 176.369 149.243C176.256 149.054 176.153 148.705 176.058 148.194C175.983 147.665 175.917 147.06 175.861 146.38C175.804 145.681 175.757 144.944 175.72 144.169C175.682 143.375 175.645 142.619 175.607 141.901C175.588 141.183 175.569 140.54 175.55 139.973C175.55 139.387 175.55 138.952 175.55 138.669C175.55 137.346 175.569 136.07 175.607 134.842C175.663 133.594 175.72 132.319 175.776 131.015C175.682 131.015 175.588 131.024 175.494 131.043C175.4 131.062 175.306 131.071 175.212 131.071C174.967 131.109 174.713 131.137 174.45 131.156C174.205 131.175 173.951 131.185 173.688 131.185C173.368 131.185 173.086 131.128 172.841 131.015C172.597 130.901 172.475 130.646 172.475 130.249C172.475 129.777 172.578 129.399 172.785 129.115C172.992 128.832 173.255 128.614 173.575 128.463C173.895 128.293 174.243 128.18 174.619 128.123C174.996 128.047 175.362 127.991 175.72 127.953C175.776 127.953 175.814 127.953 175.833 127.953C175.852 127.934 175.889 127.925 175.946 127.925C175.964 127.698 175.983 127.424 176.002 127.102C176.021 126.762 176.04 126.394 176.058 125.997C176.077 125.373 176.105 124.712 176.143 124.012C176.181 123.294 176.218 122.614 176.256 121.971C176.294 121.31 176.341 120.733 176.397 120.242C176.454 119.732 176.51 119.372 176.566 119.165C176.66 118.919 176.764 118.72 176.877 118.569C177.008 118.418 177.244 118.342 177.582 118.342C178.335 118.342 178.918 118.588 179.332 119.08C179.746 119.571 179.953 120.176 179.953 120.894C179.953 121.725 179.924 122.557 179.868 123.389C179.83 124.22 179.793 125.061 179.755 125.912L179.67 127.358C180.141 127.301 180.611 127.216 181.081 127.102C181.533 127.008 181.984 126.923 182.436 126.847C182.906 126.772 183.358 126.734 183.79 126.734C184.167 126.734 184.458 126.838 184.665 127.046C184.872 127.235 184.976 127.518 184.976 127.896C184.976 128.312 184.9 128.718 184.75 129.115C184.599 129.512 184.336 129.814 183.96 130.022H183.988C183.913 130.06 183.687 130.117 183.311 130.192C182.935 130.249 182.502 130.306 182.013 130.363C181.542 130.419 181.072 130.476 180.602 130.533C180.15 130.589 179.812 130.627 179.586 130.646H179.558C179.52 131.704 179.492 132.753 179.473 133.793C179.454 134.813 179.445 135.853 179.445 136.911C179.445 138.367 179.482 139.916 179.558 141.561C179.652 143.186 179.802 144.736 180.009 146.21L180.235 147.486C180.31 147.807 180.376 148.128 180.432 148.449C180.489 148.752 180.517 149.054 180.517 149.357Z" fill="#FFC648"/>
<path d="M199.001 148.535C199.001 148.912 198.878 149.187 198.634 149.357C198.389 149.527 198.088 149.612 197.731 149.612C197.505 149.612 197.27 149.593 197.025 149.555C196.781 149.498 196.546 149.442 196.32 149.385C195.925 149.272 195.614 149.13 195.389 148.96C195.182 148.79 195.022 148.601 194.909 148.393C194.796 148.166 194.721 147.92 194.683 147.656C194.664 147.391 194.645 147.098 194.627 146.777C194.627 146.682 194.617 146.597 194.598 146.522C194.598 146.446 194.598 146.371 194.598 146.295C194.542 145.218 194.486 144.112 194.429 142.978C194.392 141.844 194.373 140.738 194.373 139.661C194.373 139.113 194.373 138.565 194.373 138.017C194.392 137.469 194.41 136.921 194.429 136.373C194.448 135.825 194.457 135.286 194.457 134.757C194.476 134.209 194.486 133.661 194.486 133.112C194.486 132.999 194.476 132.895 194.457 132.801C194.457 132.687 194.448 132.574 194.429 132.46C193.94 133.179 193.507 133.982 193.131 134.87C192.774 135.74 192.454 136.647 192.172 137.592C191.889 138.518 191.645 139.453 191.438 140.398C191.25 141.324 191.09 142.213 190.958 143.063L190.874 143.658C190.779 144.32 190.685 145 190.591 145.7C190.497 146.38 190.45 147.06 190.45 147.741C190.45 148.024 190.497 148.336 190.591 148.676C190.629 148.827 190.657 148.979 190.676 149.13C190.714 149.262 190.732 149.432 190.732 149.64C190.732 150.094 190.62 150.396 190.394 150.547C190.168 150.717 189.867 150.802 189.491 150.802C189.265 150.802 189.011 150.784 188.729 150.746C188.465 150.708 188.202 150.642 187.939 150.547C187.694 150.472 187.459 150.368 187.233 150.235C187.007 150.103 186.829 149.933 186.697 149.725C186.584 149.479 186.471 148.827 186.358 147.769C186.264 146.711 186.17 145.397 186.076 143.829C186.001 142.26 185.926 140.502 185.851 138.556C185.775 136.59 185.7 134.577 185.625 132.517C185.568 130.457 185.512 128.416 185.455 126.394C185.418 124.371 185.38 122.51 185.343 120.809C185.324 119.108 185.305 117.634 185.286 116.386C185.267 115.12 185.258 114.232 185.258 113.722C185.258 113.344 185.305 113.003 185.399 112.701C185.512 112.38 185.813 112.219 186.302 112.219C186.81 112.219 187.29 112.342 187.741 112.588C188.193 112.814 188.522 113.173 188.729 113.665C188.766 113.74 188.804 114.052 188.842 114.6C188.879 115.13 188.917 115.819 188.955 116.67C188.992 117.501 189.03 118.465 189.067 119.561C189.105 120.639 189.143 121.763 189.18 122.935C189.218 124.088 189.256 125.25 189.293 126.422C189.331 127.594 189.368 128.69 189.406 129.711L189.547 133.906C189.773 133.32 190.055 132.706 190.394 132.064C190.732 131.421 191.118 130.835 191.551 130.306C192.002 129.777 192.501 129.342 193.046 129.002C193.611 128.662 194.232 128.492 194.909 128.492C195.737 128.492 196.386 128.709 196.856 129.144C197.326 129.578 197.674 130.117 197.9 130.759C198.145 131.402 198.295 132.092 198.352 132.829C198.408 133.566 198.436 134.237 198.436 134.842C198.436 135.22 198.427 135.588 198.408 135.947C198.408 136.306 198.399 136.666 198.38 137.025C198.361 137.403 198.342 137.781 198.323 138.159C198.323 138.518 198.323 138.886 198.323 139.264C198.323 140.568 198.352 141.91 198.408 143.29C198.464 144.651 198.606 145.993 198.831 147.315L198.888 147.712C198.925 147.826 198.954 147.958 198.972 148.109C198.991 148.26 199.001 148.402 199.001 148.535Z" fill="#FFC648"/>
<path d="M252.19 145.926C252.19 146.361 251.955 146.777 251.485 147.174C251.033 147.571 250.441 147.939 249.707 148.279C248.992 148.601 248.193 148.903 247.308 149.187C246.443 149.451 245.587 149.678 244.74 149.867C243.913 150.056 243.151 150.198 242.455 150.292C241.759 150.406 241.241 150.462 240.903 150.462C240.263 150.462 239.67 150.387 239.125 150.235C238.598 150.084 238.137 149.857 237.742 149.555C237.347 149.234 237.037 148.827 236.811 148.336C236.604 147.845 236.5 147.249 236.5 146.55C236.5 141.504 236.519 136.477 236.557 131.468C236.595 126.46 236.613 121.414 236.613 116.33C236.613 115.536 236.595 114.752 236.557 113.977C236.519 113.202 236.5 112.417 236.5 111.624C236.5 111.435 236.51 111.217 236.529 110.972C236.548 110.707 236.595 110.471 236.67 110.263C236.745 110.036 236.858 109.847 237.008 109.696C237.159 109.545 237.366 109.469 237.629 109.469C237.893 109.469 238.165 109.507 238.448 109.583C238.749 109.658 239.021 109.772 239.266 109.923C239.529 110.074 239.755 110.263 239.943 110.49C240.15 110.698 240.301 110.943 240.395 111.227C240.489 111.567 240.526 111.936 240.508 112.332C240.508 112.71 240.508 113.098 240.508 113.495C240.602 118.522 240.668 123.511 240.705 128.463C240.762 133.415 240.79 138.404 240.79 143.432C240.79 143.999 240.79 144.566 240.79 145.133C240.809 145.7 240.846 146.267 240.903 146.834C241.411 146.815 242.031 146.73 242.765 146.578C243.499 146.427 244.233 146.238 244.966 146.011C245.719 145.766 246.424 145.492 247.083 145.189C247.741 144.887 248.258 144.566 248.635 144.225C248.804 144.055 248.983 143.885 249.171 143.715C249.359 143.526 249.594 143.432 249.876 143.432C250.121 143.432 250.375 143.517 250.638 143.687C250.92 143.857 251.174 144.074 251.4 144.339C251.626 144.584 251.814 144.849 251.965 145.133C252.115 145.416 252.19 145.681 252.19 145.926Z" fill="#FFC648"/>
<path d="M256.169 126.224C256.169 126.545 256.094 126.781 255.944 126.932C255.812 127.065 255.558 127.131 255.182 127.131C255.012 127.131 254.749 127.112 254.391 127.074C254.034 127.017 253.667 126.942 253.291 126.847C252.933 126.753 252.614 126.62 252.331 126.45C252.068 126.28 251.936 126.072 251.936 125.827C251.936 125.751 251.965 125.543 252.021 125.203C252.077 124.844 252.143 124.466 252.219 124.069C252.313 123.672 252.388 123.313 252.444 122.992C252.52 122.67 252.576 122.491 252.614 122.453V122.481C252.708 122.33 252.821 122.236 252.952 122.198C253.084 122.16 253.216 122.141 253.347 122.141C253.517 122.141 253.733 122.17 253.996 122.226C254.279 122.264 254.551 122.33 254.815 122.425C255.097 122.5 255.351 122.604 255.577 122.737C255.802 122.869 255.944 123.011 256 123.162C256.056 123.313 256.085 123.521 256.085 123.786C256.103 124.031 256.103 124.258 256.085 124.466C256.085 124.542 256.075 124.636 256.056 124.749C256.056 124.844 256.056 124.92 256.056 124.976C256.056 125.071 256.056 125.165 256.056 125.26C256.075 125.354 256.094 125.449 256.113 125.543C256.132 125.638 256.141 125.742 256.141 125.855C256.16 125.968 256.169 126.091 256.169 126.224ZM257.213 148.818C257.213 149.253 257.11 149.565 256.903 149.754C256.715 149.924 256.404 150.009 255.972 150.009C255.746 150.009 255.492 149.98 255.21 149.924C254.946 149.867 254.683 149.791 254.42 149.697C254.156 149.583 253.912 149.451 253.686 149.3C253.46 149.149 253.291 148.979 253.178 148.79C253.103 148.676 253.037 148.327 252.98 147.741C252.924 147.155 252.877 146.427 252.839 145.558C252.821 144.688 252.792 143.715 252.755 142.638C252.736 141.561 252.717 140.474 252.698 139.378C252.698 138.281 252.698 137.214 252.698 136.174C252.698 135.135 252.698 134.228 252.698 133.453V131.27C252.698 131.081 252.698 130.892 252.698 130.703C252.717 130.514 252.755 130.353 252.811 130.221C252.886 130.07 252.99 129.947 253.122 129.852C253.272 129.758 253.479 129.711 253.742 129.711C254.57 129.711 255.172 129.947 255.548 130.419C255.943 130.873 256.188 131.487 256.282 132.262C256.376 133.415 256.442 134.568 256.48 135.721C256.536 136.855 256.583 138.007 256.621 139.179C256.658 140.238 256.687 141.287 256.705 142.326C256.743 143.347 256.809 144.367 256.903 145.388C256.922 145.596 256.941 145.794 256.959 145.983C256.978 146.172 257.006 146.361 257.044 146.55C257.082 146.928 257.119 147.306 257.157 147.684C257.195 148.043 257.213 148.421 257.213 148.818Z" fill="#FFC648"/>
<path d="M274.117 143.035C274.117 143.224 274.06 143.451 273.947 143.715C273.853 143.961 273.722 144.225 273.552 144.509C273.402 144.773 273.232 145.048 273.044 145.331C272.856 145.615 272.677 145.87 272.508 146.096L272.085 146.692L271.662 147.429L271.295 148.109C271.314 148.487 271.342 148.894 271.379 149.328C271.417 149.763 271.455 150.179 271.492 150.576C271.699 152.522 271.878 154.507 272.028 156.529C272.198 158.551 272.282 160.536 272.282 162.482C272.282 163.522 272.198 164.571 272.028 165.629C271.859 166.706 271.539 167.67 271.069 168.521C270.617 169.39 269.987 170.099 269.178 170.647C268.369 171.195 267.335 171.469 266.074 171.469C265.209 171.469 264.475 171.308 263.873 170.987C263.271 170.666 262.782 170.231 262.406 169.683C262.048 169.154 261.785 168.53 261.616 167.812C261.446 167.094 261.362 166.347 261.362 165.572C261.362 164.042 261.54 162.492 261.898 160.923C262.255 159.354 262.716 157.805 263.28 156.274C263.864 154.743 264.522 153.24 265.256 151.766C265.99 150.311 266.733 148.912 267.485 147.571C267.485 147.533 267.485 147.495 267.485 147.457C267.485 147.401 267.476 147.315 267.457 147.202C267.212 147.656 266.93 148.128 266.61 148.62C266.309 149.092 265.961 149.517 265.566 149.895C265.19 150.273 264.767 150.585 264.296 150.831C263.845 151.076 263.337 151.199 262.773 151.199C261.982 151.199 261.324 151.01 260.797 150.632C260.27 150.254 259.847 149.772 259.527 149.187C259.226 148.601 259.01 147.958 258.878 147.259C258.747 146.559 258.681 145.898 258.681 145.274C258.681 144.556 258.718 143.847 258.794 143.148C258.888 142.449 258.991 141.768 259.104 141.107C259.292 140.049 259.527 138.905 259.81 137.677C260.111 136.429 260.477 135.201 260.91 133.991C261.343 132.763 261.841 131.61 262.406 130.533C262.989 129.455 263.666 128.539 264.437 127.783L264.663 127.584C264.908 127.339 265.19 127.102 265.51 126.876C265.83 126.63 266.159 126.507 266.497 126.507C266.704 126.507 266.883 126.564 267.034 126.677C267.203 126.791 267.344 126.942 267.457 127.131C267.57 127.301 267.654 127.49 267.711 127.698C267.786 127.906 267.824 128.104 267.824 128.293C267.824 128.52 267.739 128.766 267.57 129.03H267.626C268.774 129.03 269.545 129.559 269.94 130.618C270.147 130.807 270.298 131.034 270.392 131.298C270.505 131.563 270.561 131.846 270.561 132.149C270.561 132.3 270.552 132.47 270.533 132.659C270.514 132.829 270.486 132.99 270.448 133.141C270.411 133.311 270.382 133.472 270.364 133.623C270.345 133.774 270.335 133.916 270.335 134.048C270.335 134.483 270.345 135.021 270.364 135.664C270.382 136.306 270.411 136.977 270.448 137.677C270.486 138.376 270.523 139.066 270.561 139.746C270.617 140.408 270.665 140.984 270.702 141.476C270.834 141.305 270.984 141.154 271.154 141.022C271.342 140.89 271.558 140.823 271.803 140.823C272.01 140.823 272.245 140.899 272.508 141.05C272.79 141.201 273.044 141.39 273.27 141.617C273.515 141.844 273.712 142.09 273.863 142.354C274.032 142.6 274.117 142.827 274.117 143.035ZM266.356 131.355C266.356 131.241 266.356 131.119 266.356 130.986C266.375 130.854 266.403 130.712 266.441 130.561L266.243 130.816C266.093 130.986 265.952 131.147 265.82 131.298C265.689 131.449 265.566 131.61 265.453 131.78C264.964 132.498 264.532 133.434 264.155 134.587C263.798 135.721 263.497 136.921 263.252 138.187C263.008 139.434 262.82 140.663 262.688 141.872C262.575 143.082 262.519 144.121 262.519 144.991C262.519 145.426 262.528 145.86 262.547 146.295C262.566 146.73 262.66 147.155 262.829 147.571C263.092 147.287 263.309 146.985 263.478 146.663C263.647 146.323 263.807 145.974 263.958 145.615C264.372 144.688 264.729 143.611 265.03 142.383C265.331 141.154 265.576 139.888 265.764 138.584C265.952 137.28 266.093 136.004 266.187 134.757C266.281 133.49 266.338 132.356 266.356 131.355ZM268.501 161.632C268.501 160.347 268.473 159.137 268.416 158.003C268.36 156.888 268.275 155.688 268.162 154.403C267.824 155.215 267.476 156.085 267.118 157.011C266.78 157.956 266.479 158.901 266.215 159.846C265.952 160.81 265.736 161.764 265.566 162.709C265.397 163.654 265.312 164.552 265.312 165.402V165.601C265.312 166.035 265.34 166.499 265.397 166.99C265.453 167.5 265.632 167.916 265.933 168.237H266.243C266.62 168.237 266.93 168.105 267.175 167.84C267.438 167.595 267.654 167.273 267.824 166.877C267.993 166.48 268.125 166.035 268.219 165.544C268.313 165.053 268.379 164.561 268.416 164.07C268.454 163.579 268.473 163.116 268.473 162.681C268.492 162.246 268.501 161.896 268.501 161.632Z" fill="#FFC648"/>
<path d="M288.311 148.535C288.311 148.912 288.189 149.187 287.944 149.357C287.699 149.527 287.398 149.612 287.041 149.612C286.815 149.612 286.58 149.593 286.336 149.555C286.091 149.498 285.856 149.442 285.63 149.385C285.235 149.272 284.925 149.13 284.699 148.96C284.492 148.79 284.332 148.601 284.219 148.393C284.106 148.166 284.031 147.92 283.993 147.656C283.975 147.391 283.956 147.098 283.937 146.777C283.937 146.682 283.928 146.597 283.909 146.522C283.909 146.446 283.909 146.371 283.909 146.295C283.852 145.218 283.796 144.112 283.739 142.978C283.702 141.844 283.683 140.738 283.683 139.661C283.683 139.113 283.683 138.565 283.683 138.017C283.702 137.469 283.721 136.921 283.739 136.373C283.758 135.825 283.768 135.286 283.768 134.757C283.786 134.209 283.796 133.661 283.796 133.112C283.796 132.999 283.786 132.895 283.768 132.801C283.768 132.687 283.758 132.574 283.739 132.46C283.25 133.179 282.818 133.982 282.441 134.87C282.084 135.74 281.764 136.647 281.482 137.592C281.2 138.518 280.955 139.453 280.748 140.398C280.56 141.324 280.4 142.213 280.268 143.063L280.184 143.658C280.09 144.32 279.996 145 279.902 145.7C279.808 146.38 279.76 147.06 279.76 147.741C279.76 148.024 279.808 148.336 279.902 148.676C279.939 148.827 279.967 148.979 279.986 149.13C280.024 149.262 280.043 149.432 280.043 149.64C280.043 150.094 279.93 150.396 279.704 150.547C279.478 150.717 279.177 150.802 278.801 150.802C278.575 150.802 278.321 150.784 278.039 150.746C277.776 150.708 277.512 150.642 277.249 150.547C277.004 150.472 276.769 150.368 276.544 150.235C276.318 150.103 276.139 149.933 276.007 149.725C275.894 149.479 275.782 148.827 275.669 147.769C275.575 146.711 275.481 145.397 275.387 143.829C275.311 142.26 275.236 140.502 275.161 138.556C275.086 136.59 275.01 134.577 274.935 132.517C274.879 130.457 274.822 128.416 274.766 126.394C274.728 124.371 274.69 122.51 274.653 120.809C274.634 119.108 274.615 117.634 274.596 116.386C274.578 115.12 274.568 114.232 274.568 113.722C274.568 113.344 274.615 113.003 274.709 112.701C274.822 112.38 275.123 112.219 275.612 112.219C276.12 112.219 276.6 112.342 277.051 112.588C277.503 112.814 277.832 113.173 278.039 113.665C278.077 113.74 278.114 114.052 278.152 114.6C278.19 115.13 278.227 115.819 278.265 116.67C278.303 117.501 278.34 118.465 278.378 119.561C278.415 120.639 278.453 121.763 278.491 122.935C278.528 124.088 278.566 125.25 278.604 126.422C278.641 127.594 278.679 128.69 278.716 129.711L278.857 133.906C279.083 133.32 279.365 132.706 279.704 132.064C280.043 131.421 280.428 130.835 280.861 130.306C281.313 129.777 281.811 129.342 282.357 129.002C282.921 128.662 283.542 128.492 284.219 128.492C285.047 128.492 285.696 128.709 286.166 129.144C286.637 129.578 286.985 130.117 287.21 130.759C287.455 131.402 287.605 132.092 287.662 132.829C287.718 133.566 287.747 134.237 287.747 134.842C287.747 135.22 287.737 135.588 287.718 135.947C287.718 136.306 287.709 136.666 287.69 137.025C287.671 137.403 287.652 137.781 287.634 138.159C287.634 138.518 287.634 138.886 287.634 139.264C287.634 140.568 287.662 141.91 287.718 143.29C287.775 144.651 287.916 145.993 288.142 147.315L288.198 147.712C288.236 147.826 288.264 147.958 288.283 148.109C288.301 148.26 288.311 148.402 288.311 148.535Z" fill="#FFC648"/>
<rect x="294" y="96" width="5" height="54" rx="1" fill="#FFC648"/>
<rect x="310.5" y="109.5" width="5" height="28" rx="1" transform="rotate(90 310.5 109.5)" fill="#FFC648"/>
<path d="M225 125H204C204 136.234 208.265 138.109 222.607 138.109M209.327 138.787C209.327 149 214.756 149 218.854 149" stroke="white" stroke-width="4" stroke-linecap="square"/>
</svg>
