<svg width="179" height="188" viewBox="0 0 179 188" fill="none" xmlns="http://www.w3.org/2000/svg">
<rect width="179" height="188" rx="28" fill="#0A0A0A"/>
<path d="M100.902 122.152H76.3915C76.3915 135.304 81.3698 137.5 98.1089 137.5M82.6089 138.293C82.6089 150.25 88.9458 150.25 93.7284 150.25" stroke="white" stroke-width="4" stroke-linecap="square"/>
<path fill-rule="evenodd" clip-rule="evenodd" d="M88.3478 29C62.2214 29 49 48.6809 49 64.8096C49 71.6101 51.2589 77.766 54.5705 83.5705C53.0142 84.1742 51.5698 85.0498 50.2819 86.1471C46.6533 79.8055 44 72.7513 44 64.8096C44 46.1831 59.2035 24 88.3478 24C116.927 24 130.304 46.367 130.304 64.8096C130.304 72.6728 127.884 79.5972 124.548 85.8261C123.228 84.7723 121.755 83.9456 120.175 83.3965C123.227 77.6868 125.304 71.6097 125.304 64.8096C125.304 48.4971 113.573 29 88.3478 29Z" fill="#FFC648"/>
<path d="M75.2925 63.6807L71.598 63.6821C71.5247 63.6821 71.488 63.6401 71.4879 63.556L71.516 54.3834L67.2037 41.3511C67.1827 41.2671 67.2141 41.225 67.2979 41.225L70.8824 41.2237C70.9872 41.2237 71.0501 41.2657 71.0711 41.3497L73.4482 50.0329L75.8661 41.348C75.887 41.2639 75.9394 41.2219 76.0233 41.2218L79.6392 41.2205C79.723 41.2205 79.7545 41.2625 79.7336 41.3466L75.3834 54.2559L75.4183 63.5546C75.4183 63.6386 75.3764 63.6807 75.2925 63.6807Z" fill="white"/>
<path d="M86.4862 63.9919C85.3438 63.9923 84.2904 63.6985 83.3259 63.1104C82.372 62.5224 81.6013 61.7399 81.014 60.763C80.4372 59.7755 80.1486 58.6934 80.1482 57.5166L80.1759 47.2881C80.1755 46.0903 80.4633 45.0132 81.0394 44.0569C81.605 43.09 82.3699 42.3175 83.3339 41.7393C84.2979 41.1505 85.3459 40.856 86.4778 40.8555C87.6517 40.8551 88.7051 41.1437 89.6381 41.7212C90.5816 42.2988 91.3365 43.076 91.9029 44.0529C92.4797 45.0194 92.7683 46.0962 92.7687 47.2835L92.8039 57.512C92.8043 58.6888 92.5217 59.7659 91.9561 60.7432C91.38 61.7311 90.6152 62.5194 89.6616 63.1081C88.7081 63.6969 87.6496 63.9914 86.4862 63.9919ZM86.4848 60.099C87.1346 60.0988 87.7005 59.8359 88.1824 59.3104C88.6644 58.7744 88.9052 58.1754 88.905 57.5134L88.8698 47.2849C88.8695 46.5705 88.644 45.9664 88.1931 45.4727C87.7423 44.9791 87.171 44.7324 86.4792 44.7326C85.8189 44.7329 85.2531 44.9747 84.7816 45.4582C84.3101 45.9417 84.0745 46.5512 84.0748 47.2867L84.0785 57.5152C84.0788 58.2192 84.3148 58.8285 84.7866 59.3431C85.2585 59.8473 85.8245 60.0993 86.4848 60.099Z" fill="white"/>
<path d="M101.17 63.9865C100.038 63.9869 98.9898 63.6931 98.0254 63.1051C97.0609 62.517 96.2903 61.7293 95.7135 60.7419C95.1471 59.7439 94.8638 58.6565 94.8633 57.4798L94.9204 41.341C94.9203 41.257 94.9622 41.215 95.0461 41.2149L98.662 41.2136C98.7458 41.2136 98.7878 41.2556 98.7878 41.3396L98.7937 57.4783C98.7939 58.2033 99.0247 58.8231 99.4861 59.3378C99.9474 59.842 100.508 60.0939 101.169 60.0937C101.86 60.0934 102.437 59.8411 102.898 59.3366C103.359 58.8216 103.589 58.2016 103.589 57.4766L103.583 41.3379C103.583 41.2538 103.625 41.2118 103.709 41.2118L107.324 41.2105C107.408 41.2104 107.45 41.2524 107.45 41.3365L107.519 57.4752C107.519 58.6624 107.237 59.7553 106.671 60.7536C106.095 61.7415 105.33 62.5298 104.377 63.1185C103.423 63.6968 102.354 63.9861 101.17 63.9865Z" fill="white"/>
<path d="M66.8431 87.398L70.8282 65.2216C70.8492 65.1375 70.9016 65.0955 70.9854 65.0955L75.6546 65.0938C75.7385 65.0937 75.7909 65.1357 75.8119 65.2198L79.656 87.3933C79.6665 87.4984 79.6246 87.5509 79.5303 87.551L75.9615 87.5523C75.8567 87.5523 75.799 87.4998 75.7885 87.3947L75.4418 85.0308L71.0555 85.0324L70.7105 87.3966C70.7001 87.5017 70.6477 87.5542 70.5534 87.5542L66.9689 87.5555C66.8851 87.5556 66.8431 87.5031 66.8431 87.398ZM73.1419 72.5178L71.6989 81.5806L74.796 81.5795L73.4721 72.5177L73.283 71.32L73.1419 72.5178Z" fill="white"/>
<path d="M85.4415 87.5488L81.7941 87.5502C81.7103 87.5502 81.6683 87.4977 81.6683 87.3926L81.7231 65.2176C81.7231 65.1336 81.765 65.0916 81.8488 65.0915L88.3575 65.0892C89.5209 65.0887 90.59 65.372 91.5649 65.9391C92.5399 66.5061 93.3157 67.2675 93.8925 68.2235C94.4798 69.1794 94.7737 70.2615 94.7741 71.4698C94.7744 72.2578 94.6541 72.9723 94.4133 73.6133C94.1725 74.2544 93.8897 74.7956 93.5649 75.237C93.2507 75.6784 92.9626 76.0042 92.7006 76.2144C93.8645 77.5064 94.4467 79.0244 94.4473 80.7686L94.4812 87.3879C94.4812 87.493 94.4288 87.5456 94.324 87.5456L90.6767 87.5469C90.5928 87.547 90.5509 87.5155 90.5509 87.4524L90.5484 80.77C90.5482 79.9925 90.2754 79.3201 89.7302 78.753C89.185 78.1858 88.5141 77.9023 87.7176 77.9026L85.5952 77.9034L85.5672 87.3912C85.5672 87.4963 85.5253 87.5488 85.4415 87.5488ZM88.3589 68.9505L85.5919 68.9515L85.5938 74.0263L88.3607 74.0253C89.021 74.0251 89.6079 73.778 90.1212 73.2839C90.6451 72.7899 90.9069 72.1857 90.9067 71.4712C90.9064 70.7883 90.6546 70.2 90.1514 69.7063C89.6481 69.2022 89.0506 68.9502 88.3589 68.9505Z" fill="white"/>
<path d="M107.734 87.5407L97.3268 87.5445C97.2429 87.5445 97.201 87.492 97.201 87.387L97.2243 65.212C97.2243 65.128 97.2662 65.0859 97.3501 65.0859L107.695 65.0821C107.779 65.0821 107.82 65.1346 107.821 65.2397L107.822 68.8488C107.822 68.9329 107.78 68.9749 107.696 68.975L101.093 68.9774L101.095 74.0207L107.698 74.0183C107.782 74.0183 107.824 74.0603 107.824 74.1443L107.857 77.8007C107.857 77.8848 107.815 77.9268 107.731 77.9269L101.096 77.9293L101.098 83.5715L107.733 83.5691C107.817 83.5691 107.859 83.6216 107.859 83.7267L107.86 87.4146C107.86 87.4987 107.818 87.5407 107.734 87.5407Z" fill="white"/>
</svg>
